<?xml version="1.0" encoding="utf-8"?>
<!-- Generator: Adobe Illustrator 25.0.1, SVG Export Plug-In . SVG Version: 6.00 Build 0)  -->
<svg version="1.1" id="Layer_1" xmlns="http://www.w3.org/2000/svg" xmlns:xlink="http://www.w3.org/1999/xlink" x="0px" y="0px"
	 viewBox="0 0 1080 732.96" style="enable-background:new 0 0 1080 732.96;" xml:space="preserve">
<g>
	<path d="M702.31,544.35c0.01,35.48,0.31,70.97-0.07,106.45c-0.4,36.95-20.6,58.64-57.91,59.12c-72.62,0.94-145.27,0.94-217.89,0.01
		c-35.15-0.45-56.9-22.74-57.24-57.79c-0.71-72.65-0.77-145.31,0.06-217.96c0.42-36.7,22.45-57.07,59.66-57.23
		c71.79-0.3,143.57-0.36,215.36,0.01c37.16,0.19,57.58,21.02,57.95,58.41C702.58,471.69,702.3,508.02,702.31,544.35z M534.69,688.61
		c35.51,0,71.03,0.35,106.54-0.11c28.24-0.36,40.57-12.13,40.76-39.97c0.47-70.2,0.5-140.41,0.03-210.61
		c-0.19-27.93-12.77-40.52-40.46-40.7c-70.18-0.45-140.36-0.41-210.54-0.04c-28.08,0.15-40.09,12.09-40.26,40.34
		c-0.42,70.2-0.4,140.41,0.02,210.61c0.17,28.68,11.66,40,39.91,40.36C465.35,688.92,500.02,688.6,534.69,688.61z"/>
	<path d="M537.54,16.12c35.47-0.03,70.94-0.39,106.4,0.07c37.47,0.48,58.1,20.83,58.31,58.1c0.4,71.8,0.42,143.6-0.01,215.4
		c-0.23,38.01-21.56,59.36-60.13,59.66c-70.93,0.55-141.87,0.6-212.8-0.08c-38.06-0.37-59.92-22.3-60.23-60.09
		c-0.59-70.95-0.62-141.92-0.02-212.87c0.33-39.64,21.68-59.5,62.09-60.14c1.69-0.03,3.38-0.02,5.07-0.02
		C469.99,16.14,503.76,16.14,537.54,16.12z M390.51,183.92c0.03,0,0.06,0,0.08,0c0,34.68-0.39,69.36,0.12,104.03
		c0.42,28.58,11.59,39.45,40.51,39.56c70.18,0.26,140.36,0.29,210.54-0.01c28.03-0.12,40.1-11.98,40.27-40.26
		c0.42-70.2,0.45-140.41-0.02-210.61c-0.18-27.29-13.44-40.15-40.97-40.3c-69.33-0.37-138.67-0.33-208-0.03
		c-30.65,0.13-42.14,12.09-42.46,43.57C390.24,114.56,390.51,149.25,390.51,183.92z"/>
	<path d="M897.93,376.88c35.47-0.04,70.94-0.34,106.4,0.05c37.57,0.41,58.2,20.54,58.43,57.91c0.44,72.64,0.46,145.3-0.02,217.94
		c-0.23,34.18-20.58,56.51-54.65,57.04c-74.29,1.16-148.63,1.18-222.92,0.01c-33.54-0.53-54.83-23.11-55.22-57.1
		c-0.84-72.64-0.86-145.3,0.01-217.94c0.44-37.26,22-57.41,59.05-57.8C825.31,376.62,861.62,376.91,897.93,376.88z M894.97,688.58
		c34.67,0,69.35,0.19,104.02-0.06c31.72-0.22,43.48-11.27,43.64-42.17c0.35-69.36,0.38-138.73-0.01-208.1
		c-0.16-27.73-12.98-40.95-40.07-41.11c-70.19-0.42-140.38-0.37-210.57,0.01c-28.42,0.15-40.45,11.99-40.59,40
		c-0.37,70.21-0.36,140.43,0.06,210.64c0.18,30.02,11.31,40.42,42.05,40.7C827.32,688.81,861.15,688.57,894.97,688.58z"/>
	<path d="M341.78,542.63c-0.03,35.48,0.27,70.97-0.11,106.44c-0.42,38.83-20.74,60.57-58.85,60.94
		c-71.78,0.7-143.57,0.76-215.35,0.01c-36.64-0.38-58.59-22.41-58.93-58.75c-0.67-71.8-0.68-143.62-0.05-215.42
		c0.34-38.32,21.84-58.74,60.59-58.9c70.94-0.31,141.88-0.37,212.82-0.02c39.21,0.19,59.41,20.39,59.83,59.25
		C342.11,471.67,341.81,507.15,341.78,542.63z M174.03,688.52c0,0.03,0,0.06,0,0.09c35.51,0,71.03,0.28,106.54-0.09
		c27.94-0.29,40.67-12.18,40.88-40.03c0.54-70.2,0.51-140.41,0-210.61c-0.2-27.52-13.43-40.58-40.69-40.72
		c-70.18-0.38-140.36-0.32-210.54,0.08c-27.84,0.16-40.3,12.36-40.48,40.38c-0.46,70.2-0.49,140.41,0.11,210.61
		c0.25,29.7,11.93,40.02,42.72,40.24C106.38,688.71,140.2,688.52,174.03,688.52z"/>
	<path d="M500.4,555.66c11.45-1.71,18.81-2.82,29.01-4.34c0-26.87,0-53.42,0-79.97c3.33-0.37,6.67-0.74,10-1.12
		c1.16,12.12,2.85,24.21,3.35,36.35c0.59,14.23,0.14,28.5,0.14,43.81c9.62,2.02,17.54,3.68,28.1,5.9
		c-11.11,18.78-21.71,36.69-34.52,58.35C524.04,594.3,513.05,576.32,500.4,555.66z"/>
	<path d="M531.95,254.58c0-25.96,0-51.92,0-78.89c-11.99-1.91-20.51-3.26-31.71-5.04c11.95-20.04,22.93-38.45,35.79-60.01
		c12.71,21.32,23.59,39.59,36.02,60.44c-10.75,1.28-18.59,2.22-31.3,3.74c0,26.95,0,53.45,0,79.94
		C537.82,254.7,534.89,254.64,531.95,254.58z"/>
	<path d="M907.51,579.37c-1.01-11.53-1.66-18.99-2.59-29.57c-26.72,0-53.02,0-79.31,0c-0.38-3.54-0.76-7.07-1.15-10.61
		c11.98-1.03,23.93-2.52,35.93-2.95c14.14-0.52,28.3-0.12,44.02-0.12c1.19-9.86,2.13-17.64,3.5-28.98
		c20.7,12.27,39.06,23.16,60.71,36C947.08,555.91,928.14,567.13,907.51,579.37z"/>
	<path d="M103.23,542.98c21.31-12.46,39.35-23.01,59.46-34.77c1.48,9.53,2.58,16.63,4.56,29.4c26.38,0,53.67,0,80.96,0
		c-0.02,3.36-0.05,6.71-0.07,10.07c-26.71,0-53.42,0-80.54,0c-1.92,12.16-3.17,20.09-4.86,30.75
		C142.57,566.41,124.08,555.39,103.23,542.98z"/>
</g>
</svg>
