<?xml version="1.0" encoding="utf-8"?>
<!-- Generator: Adobe Illustrator 25.0.1, SVG Export Plug-In . SVG Version: 6.00 Build 0)  -->
<svg version="1.1" id="Layer_1" xmlns="http://www.w3.org/2000/svg" xmlns:xlink="http://www.w3.org/1999/xlink" x="0px" y="0px"
	 viewBox="0 0 1080 364.85" style="enable-background:new 0 0 1080 364.85;" xml:space="preserve">
<style type="text/css">
	.st0{fill:none;stroke:#000000;stroke-width:17;stroke-miterlimit:10;}
	.st1{enable-background:new    ;}
</style>
<path class="st0" d="M952.48,338.26h-875c-35.15,0-63.65-28.5-63.65-63.65V92.11c0-35.15,28.5-63.65,63.65-63.65h875.01
	c35.15,0,63.65,28.5,63.65,63.65v182.5C1016.13,309.76,987.63,338.26,952.48,338.26z"/>
<g class="st1">
	<path d="M302.04,202.89h-8.21v8.69h-43.22v-8.21h-8.69v-8.69h17.26v8.21h25.59v-16.78h-34.16v-8.69h-8.69v-17.26h8.21v-8.69h34.65
		v8.21h8.69v8.69h-17.02v-8.21h-17.26v16.66h34.28v8.81h8.57V202.89z"/>
	<path d="M368.44,185.62h-8.21v8.69h-34.65v17.26h-17.26v-60.12h51.55v8.21h8.57V185.62z M351.17,185.62v-25.47h-25.59v25.47H351.17
		z"/>
	<path d="M434.83,211.58h-17.26v-17.14h-25.59v17.14h-17.26v-42.85h8.21v-8.57h8.81v-8.69h25.83v8.21h8.69v8.57h8.57V211.58z
		 M417.57,185.75v-17.5h-8.57v-8.09h-8.81v8.57h-8.21v17.02H417.57z"/>
	<path d="M501.22,168.36H484.2v-8.21h-17.02v8.21h-8.81v25.71h8.45v8.81h17.14v-8.33h17.26v8.33h-8.21v8.69h-34.65v-8.21h-8.57
		v-8.81h-8.69v-26.2h8.21v-8.21H458v-8.69h34.65v8.21h8.57V168.36z"/>
	<path d="M568.7,211.1h-60.84v-60.72h60.84v8.45h-43.34v17.26h25.95v8.93h-25.95v17.38h43.34V211.1z"/>
	<path d="M649.45,202.89h-8.21v8.69h-51.91v-60.12h51.55v8.33h8.57v17.26h-8.33v8.57h8.33V202.89z M632.19,177.05v-16.9H606.6v16.9
		H632.19z M632.19,202.89v-17.14H606.6v17.14H632.19z"/>
	<path d="M715.85,211.58h-17.26v-17.14h-25.59v17.14h-17.26v-42.85h8.21v-8.57h8.81v-8.69h25.83v8.21h8.69v8.57h8.57V211.58z
		 M698.58,185.75v-17.5h-8.57v-8.09h-8.81v8.57h-8.21v17.02H698.58z"/>
	<path d="M782.24,185.75h-17.26v8.33h8.69v8.81h8.57v8.69h-25.59v-8.09h-8.57v-9.05h-8.69v17.14h-17.26v-60.12h51.55v8.33h8.57
		V185.75z M764.98,177.05v-16.9h-25.59v25.59h17.26v-8.69H764.98z"/>
</g>
</svg>
